<svg id="Слой_1" data-name="Слой 1" xmlns="http://www.w3.org/2000/svg" viewBox="0 0 680.25 371.71"><defs><style>.cls-1{font-size:210.3px;font-family:Pobeda-Bold, Pobeda;font-weight:700;}.cls-2{letter-spacing:-0.01em;}.cls-3{letter-spacing:-0.03em;}.cls-4{letter-spacing:0em;}</style></defs><path d="M572.5,49A65.57,65.57,0,0,1,638,114.5v132A65.57,65.57,0,0,1,572.5,312h-470A65.57,65.57,0,0,1,37,246.5v-132A65.57,65.57,0,0,1,102.5,49h470m0-23h-470A88.5,88.5,0,0,0,14,114.5v132A88.5,88.5,0,0,0,102.5,335h470A88.5,88.5,0,0,0,661,246.5v-132A88.5,88.5,0,0,0,572.5,26Z"/><rect x="576" y="98" width="10" height="165" rx="4.12"/><text class="cls-1" transform="translate(90 256.64) scale(1.19 1)">S<tspan class="cls-2" x="83.07" y="0">H</tspan><tspan x="168.45" y="0">O</tspan><tspan class="cls-3" x="253.62" y="0">R</tspan><tspan class="cls-4" x="328.7" y="0">T</tspan></text></svg>